<svg width="194" height="24" viewBox="0 0 194 24" fill="none" xmlns="http://www.w3.org/2000/svg">
<g clip-path="url(#clip0_5_11)">
<path d="M124.903 23.9317L122.152 19.8558L121.829 20.129C118.296 23.1082 114.915 23.7799 114.581 23.8406H109.761V0.261856H114.235V18.1746L114.679 18.0987C125.211 16.3112 125.894 2.74762 125.928 0.261856H130.493C130.436 8.62618 128.429 11.6546 125.897 15.4687L125.601 15.9127L130.797 23.9317H124.903Z" fill="#ED3B3B"/>
<path d="M56.3681 23.8216L56.3757 20.1442L63.4725 20.167L65.0323 20.1784L74.482 20.2011L74.4402 19.7837C73.7078 12.4061 67.8217 10.8577 63.0095 10.8577C60.0418 10.8577 57.408 11.4383 56.353 11.704V8.16698C57.1006 8.05692 57.8634 7.95825 58.668 7.87476L59.5864 7.77988L58.8653 7.20303C58.5921 6.98292 58.3416 6.77799 58.1215 6.59203C57.0778 5.68121 56.463 4 56.353 3.67742L56.3644 0.223907H77.9279L77.9089 3.78747L70.8084 3.7647L69.2486 3.75332L60.4213 3.74193L60.7552 4.31499C61.8938 6.26186 64.5845 7.24858 68.7628 7.24858C72.5693 7.24858 76.5769 6.40987 77.9279 6.09867V9.47628C76.6072 9.87856 75.2979 10.1898 74.0304 10.3985L73.241 10.5313L73.8406 11.0588C75.2031 12.2543 75.9203 13.5104 76.3909 14.3453C76.5048 14.5465 76.6072 14.7249 76.7021 14.8729C77.9013 16.7476 77.9355 19.8102 77.9355 19.8406L77.9241 23.8292H56.3606L56.3681 23.8216Z" fill="#ED3B3B"/>
<path d="M144.994 23.9962C138.379 23.9962 132.998 18.6148 132.998 12C132.998 5.3852 138.376 0 144.994 0C151.613 0 156.99 5.3814 156.99 11.9962C156.99 18.611 151.609 23.9924 144.994 23.9924V23.9962ZM144.994 4.25427C140.725 4.25427 137.249 7.72676 137.249 12C137.249 16.2732 140.721 19.7457 144.994 19.7457C149.267 19.7457 152.736 16.2732 152.736 12C152.736 7.72676 149.264 4.25427 144.994 4.25427Z" fill="#ED3B3B"/>
<path d="M193.738 23.8406V0.261856L189.29 0.261856V23.8406H193.738Z" fill="#ED3B3B"/>
<path d="M93.704 24C87.0892 24 81.704 18.6224 81.704 12.0114V0.254272H86.1556V12.0114C86.1556 16.3491 89.4725 19.7457 93.704 19.7457C97.9355 19.7457 101.252 16.3491 101.252 12.0114V0.254272H105.693V12.2239C105.567 18.7211 100.194 23.9962 93.704 23.9962V24Z" fill="#ED3B3B"/>
<path d="M47.8102 23.8216V12.0759C47.8102 11.8899 47.7988 11.7078 47.7875 11.5218L47.7647 11.1651H32.759L32.7362 11.518C32.7248 11.704 32.7135 11.8899 32.7135 12.0721V23.8178H28.2618V11.8406C28.3795 5.35863 33.7609 0.0796967 40.2618 0.0796967C46.7628 0.0796967 52.2618 5.4611 52.2618 12.0797V23.8254H47.8102V23.8216ZM40.2618 4.34156C38.0911 4.34156 36.0417 5.26755 34.6451 6.88425L34.1024 7.51044H36.5579L38.1138 7.52182L46.4478 7.53321L45.9013 6.90323C44.4668 5.24858 42.463 4.33776 40.2618 4.33776V4.34156Z" fill="#ED3B3B"/>
<path d="M170.839 11.3852C170.349 10.1442 169.681 9.02466 168.85 8.05313C167.973 7.01707 166.884 6.13662 165.617 5.43833L165.192 5.20303V23.8254H160.565V0.254266C160.816 0.242881 161.066 0.235291 161.313 0.235291C163.575 0.235291 165.313 0.785575 166.376 1.24857C166.562 1.32447 170.873 3.14231 172.383 6.60721L172.645 7.21062L172.907 6.60721C174.36 3.25616 178.44 1.44592 178.903 1.24857C179.966 0.785575 181.708 0.235291 183.966 0.235291C184.212 0.235291 184.463 0.242881 184.713 0.254266V23.8292H180.087V5.22201L179.666 5.44971C178.421 6.12144 177.332 6.9981 176.429 8.05313C175.59 9.03225 174.915 10.167 174.421 11.4231L174.402 11.4725V23.8254H170.884V11.4763" fill="#ED3B3B"/>
<path d="M10.2732 11.3852C9.78368 10.1442 9.11575 9.02466 8.28463 8.05313C7.40797 7.01707 6.31879 6.13662 5.05123 5.43833L4.62619 5.20303V23.8254H0V0.254266C0.250474 0.242881 0.500949 0.235291 0.747628 0.235291C3.00949 0.235291 4.74763 0.785575 5.81025 1.24857C5.9962 1.32447 10.3074 3.14231 11.8178 6.60721L12.0797 7.21062L12.3416 6.60721C13.7951 3.25616 17.8748 1.44592 18.3378 1.24857C19.4004 0.785575 21.1423 0.235291 23.4004 0.235291C23.6471 0.235291 23.8975 0.242881 24.148 0.254266V23.8292H19.5218V5.22201L19.1006 5.44971C17.8558 6.12144 16.7666 6.9981 15.8634 8.05313C15.0247 9.03225 14.3491 10.167 13.8558 11.4231L13.8368 11.4725V23.8254H10.3188V11.4763" fill="#ED3B3B"/>
</g>
<defs>
<clipPath id="clip0_5_11">
<rect width="193.738" height="24" fill="white"/>
</clipPath>
</defs>
</svg>
